<svg width="24" height="25" viewBox="0 0 24 25" fill="none" xmlns="http://www.w3.org/2000/svg">
<path d="M2 18.5C2 16.9596 2 16.1893 2.34673 15.6235C2.54074 15.3069 2.80693 15.0407 3.12353 14.8467C3.68934 14.5 4.45956 14.5 6 14.5C7.54044 14.5 8.31066 14.5 8.87647 14.8467C9.19307 15.0407 9.45926 15.3069 9.65327 15.6235C10 16.1893 10 16.9596 10 18.5C10 20.0404 10 20.8107 9.65327 21.3765C9.45926 21.6931 9.19307 21.9593 8.87647 22.1533C8.31066 22.5 7.54044 22.5 6 22.5C4.45956 22.5 3.68934 22.5 3.12353 22.1533C2.80693 21.9593 2.54074 21.6931 2.34673 21.3765C2 20.8107 2 20.0404 2 18.5Z" stroke="#0D1117" stroke-width="1.5"/>
<path d="M14 18.5C14 16.9596 14 16.1893 14.3467 15.6235C14.5407 15.3069 14.8069 15.0407 15.1235 14.8467C15.6893 14.5 16.4596 14.5 18 14.5C19.5404 14.5 20.3107 14.5 20.8765 14.8467C21.1931 15.0407 21.4593 15.3069 21.6533 15.6235C22 16.1893 22 16.9596 22 18.5C22 20.0404 22 20.8107 21.6533 21.3765C21.4593 21.6931 21.1931 21.9593 20.8765 22.1533C20.3107 22.5 19.5404 22.5 18 22.5C16.4596 22.5 15.6893 22.5 15.1235 22.1533C14.8069 21.9593 14.5407 21.6931 14.3467 21.3765C14 20.8107 14 20.0404 14 18.5Z" stroke="#0D1117" stroke-width="1.5"/>
<path d="M2 6.5C2 4.95956 2 4.18934 2.34673 3.62353C2.54074 3.30693 2.80693 3.04074 3.12353 2.84673C3.68934 2.5 4.45956 2.5 6 2.5C7.54044 2.5 8.31066 2.5 8.87647 2.84673C9.19307 3.04074 9.45926 3.30693 9.65327 3.62353C10 4.18934 10 4.95956 10 6.5C10 8.04044 10 8.81066 9.65327 9.37647C9.45926 9.69307 9.19307 9.95926 8.87647 10.1533C8.31066 10.5 7.54044 10.5 6 10.5C4.45956 10.5 3.68934 10.5 3.12353 10.1533C2.80693 9.95926 2.54074 9.69307 2.34673 9.37647C2 8.81066 2 8.04044 2 6.5Z" stroke="#0D1117" stroke-width="1.5"/>
<path d="M14 6.5C14 4.95956 14 4.18934 14.3467 3.62353C14.5407 3.30693 14.8069 3.04074 15.1235 2.84673C15.6893 2.5 16.4596 2.5 18 2.5C19.5404 2.5 20.3107 2.5 20.8765 2.84673C21.1931 3.04074 21.4593 3.30693 21.6533 3.62353C22 4.18934 22 4.95956 22 6.5C22 8.04044 22 8.81066 21.6533 9.37647C21.4593 9.69307 21.1931 9.95926 20.8765 10.1533C20.3107 10.5 19.5404 10.5 18 10.5C16.4596 10.5 15.6893 10.5 15.1235 10.1533C14.8069 9.95926 14.5407 9.69307 14.3467 9.37647C14 8.81066 14 8.04044 14 6.5Z" stroke="#0D1117" stroke-width="1.5"/>
</svg>
